<svg width="16" height="17" viewBox="0 0 16 17" fill="none" xmlns="http://www.w3.org/2000/svg">
<path d="M8.00004 14.9167C7.08893 14.9167 6.22782 14.7416 5.41671 14.3913C4.6056 14.0416 3.89737 13.5638 3.29204 12.958C2.68626 12.3527 2.20849 11.6445 1.85871 10.8333C1.50849 10.0222 1.33337 9.16112 1.33337 8.25001C1.33337 7.32779 1.50849 6.46401 1.85871 5.65868C2.20849 4.8529 2.68626 4.14734 3.29204 3.54201C3.89737 2.93623 4.6056 2.45823 5.41671 2.10801C6.22782 1.75823 7.08893 1.58334 8.00004 1.58334C8.92226 1.58334 9.78604 1.75823 10.5914 2.10801C11.3972 2.45823 12.1027 2.93623 12.708 3.54201C13.3138 4.14734 13.7916 4.8529 14.1414 5.65868C14.4916 6.46401 14.6667 7.32779 14.6667 8.25001V9.21668C14.6667 9.87223 14.4418 10.4305 13.992 10.8913C13.5418 11.3527 12.9889 11.5833 12.3334 11.5833C11.9334 11.5833 11.5612 11.4945 11.2167 11.3167C10.8723 11.1389 10.5889 10.9056 10.3667 10.6167C10.0667 10.9167 9.71404 11.1529 9.30871 11.3253C8.90293 11.4973 8.46671 11.5833 8.00004 11.5833C7.07782 11.5833 6.29182 11.2582 5.64204 10.608C4.99182 9.95823 4.66671 9.17223 4.66671 8.25001C4.66671 7.32779 4.99182 6.54157 5.64204 5.89134C6.29182 5.24157 7.07782 4.91668 8.00004 4.91668C8.92226 4.91668 9.70848 5.24157 10.3587 5.89134C11.0085 6.54157 11.3334 7.32779 11.3334 8.25001V9.21668C11.3334 9.5389 11.4334 9.79157 11.6334 9.97468C11.8334 10.1582 12.0667 10.25 12.3334 10.25C12.6 10.25 12.8334 10.1582 13.0334 9.97468C13.2334 9.79157 13.3334 9.5389 13.3334 9.21668V8.25001C13.3334 6.79445 12.8083 5.54157 11.758 4.49134C10.7083 3.44157 9.4556 2.91668 8.00004 2.91668C6.54448 2.91668 5.2916 3.44157 4.24137 4.49134C3.1916 5.54157 2.66671 6.79445 2.66671 8.25001C2.66671 9.70557 3.1916 10.9582 4.24137 12.008C5.2916 13.0582 6.54448 13.5833 8.00004 13.5833H10.6667C10.8556 13.5833 11.0138 13.6473 11.1414 13.7753C11.2694 13.9029 11.3334 14.0611 11.3334 14.25C11.3334 14.4389 11.2694 14.5971 11.1414 14.7247C11.0138 14.8527 10.8556 14.9167 10.6667 14.9167H8.00004ZM8.00004 10.25C8.5556 10.25 9.02782 10.0556 9.41671 9.66668C9.8056 9.27779 10 8.80557 10 8.25001C10 7.69445 9.8056 7.22223 9.41671 6.83334C9.02782 6.44445 8.5556 6.25001 8.00004 6.25001C7.44448 6.25001 6.97226 6.44445 6.58337 6.83334C6.19448 7.22223 6.00004 7.69445 6.00004 8.25001C6.00004 8.80557 6.19448 9.27779 6.58337 9.66668C6.97226 10.0556 7.44448 10.25 8.00004 10.25Z" fill="#CCCCCC"/>
</svg>
