<svg width="16" height="17" viewBox="0 0 16 17" fill="none" xmlns="http://www.w3.org/2000/svg">
<g clip-path="url(#clip0_6_4)">
<path d="M6.89658 12.6637C6.43683 13.1234 5.88512 13.3533 5.24146 13.3533C4.5978 13.3533 4.04609 13.1234 3.58634 12.6637C3.12658 12.2039 2.8967 11.6522 2.8967 11.0085C2.8967 10.3649 3.12658 9.81318 3.58634 9.35342C4.04609 8.89367 4.5978 8.66379 5.24146 8.66379C5.88512 8.66379 6.43683 8.89367 6.89658 9.35342C7.35634 9.81318 7.58622 10.3649 7.58622 11.0085C7.58622 11.6522 7.35634 12.2039 6.89658 12.6637ZM8.5517 14.3188C9.25973 13.6108 9.6965 12.7694 9.86201 11.7947C10.0275 10.82 9.89419 9.88674 9.46202 8.99481L9.65512 8.80172L11.8619 8.80172L11.8619 6.59489L14.3308 6.30524L14.055 2.16743L11.8757 2.16743L7.25519 6.78798C6.40924 6.3834 5.49672 6.24768 4.51762 6.38082C3.53816 6.51434 2.67602 6.9535 1.93122 7.6983C1.0117 8.61781 0.551947 9.72123 0.551947 11.0085C0.551947 12.2959 1.0117 13.3993 1.93122 14.3188C2.85073 15.2383 3.95414 15.6981 5.24146 15.6981C6.52878 15.6981 7.63219 15.2383 8.5517 14.3188Z" fill="#CCCCCC"/>
</g>
<defs>
<clipPath id="clip0_6_4">
<rect width="16" height="16" fill="white" transform="translate(0 0.25)"/>
</clipPath>
</defs>
</svg>
